<?xml version="1.0" encoding="UTF-8" standalone="no"?>
<!DOCTYPE svg PUBLIC "-//W3C//DTD SVG 1.1//EN" "http://www.w3.org/Graphics/SVG/1.1/DTD/svg11.dtd">
<svg width="100%" height="100%" viewBox="0 0 1095 563" version="1.1" xmlns="http://www.w3.org/2000/svg" xmlns:xlink="http://www.w3.org/1999/xlink" xml:space="preserve" xmlns:serif="http://www.serif.com/" style="fill-rule:evenodd;clip-rule:evenodd;stroke-linejoin:round;stroke-miterlimit:2;">
    <g transform="matrix(1,0,0,1,-303.302,-166.21)">
        <g>
            <g transform="matrix(0.9684,0,0,0.910843,9.5843,14.8188)">
                <rect x="303.302" y="166.21" width="1130.08" height="617.035" style="fill:white;fill-opacity:0.02;"/>
            </g>
            <g transform="matrix(1,0,0,1,-40.4642,-3.18064)">
                <g transform="matrix(340.922,0,0,340.922,395.123,655)">
                    <rect x="0.072" y="-0.788" width="0.091" height="0.788" style="fill-rule:nonzero;"/>
                </g>
                <g transform="matrix(340.922,0,0,340.922,475.16,655)">
                    <path d="M0.303,0.015C0.232,0.015 0.171,-0.009 0.121,-0.057C0.071,-0.106 0.045,-0.178 0.045,-0.273C0.045,-0.368 0.071,-0.44 0.121,-0.488C0.171,-0.536 0.232,-0.561 0.303,-0.561C0.374,-0.561 0.435,-0.536 0.485,-0.488C0.535,-0.44 0.561,-0.368 0.561,-0.273C0.561,-0.178 0.535,-0.106 0.485,-0.057C0.435,-0.009 0.374,0.015 0.303,0.015ZM0.303,-0.061C0.352,-0.061 0.391,-0.08 0.421,-0.119C0.451,-0.158 0.466,-0.209 0.466,-0.273C0.466,-0.337 0.451,-0.388 0.421,-0.427C0.391,-0.465 0.352,-0.485 0.303,-0.485C0.254,-0.485 0.215,-0.465 0.185,-0.427C0.155,-0.388 0.14,-0.337 0.14,-0.273C0.14,-0.209 0.155,-0.158 0.185,-0.119C0.215,-0.08 0.254,-0.061 0.303,-0.061Z" style="fill-rule:nonzero;"/>
                </g>
            </g>
            <g transform="matrix(1,0,0,1,-205.658,150.593)">
                <g transform="matrix(340.922,0,0,340.922,862.5,504.167)">
                    <path d="M0.041,-0.791L0.248,-0.791C0.304,-0.791 0.347,-0.786 0.377,-0.777C0.407,-0.769 0.43,-0.756 0.445,-0.739C0.46,-0.723 0.47,-0.703 0.476,-0.679C0.481,-0.655 0.484,-0.619 0.484,-0.569L0.484,-0.5C0.484,-0.45 0.479,-0.413 0.468,-0.39C0.458,-0.367 0.439,-0.349 0.411,-0.337C0.383,-0.325 0.347,-0.318 0.302,-0.318L0.247,-0.318L0.247,-0L0.041,-0L0.041,-0.791ZM0.247,-0.655L0.247,-0.454C0.252,-0.454 0.257,-0.454 0.262,-0.454C0.281,-0.454 0.294,-0.458 0.301,-0.468C0.308,-0.477 0.312,-0.496 0.312,-0.525L0.312,-0.59C0.312,-0.617 0.308,-0.635 0.299,-0.643C0.291,-0.651 0.273,-0.655 0.247,-0.655Z" style="fill:rgb(87,114,214);fill-rule:nonzero;"/>
                </g>
                <g transform="matrix(340.922,0,0,340.922,1033.63,504.167)">
                    <path d="M0.514,-0.791L0.514,-0L0.308,-0L0.308,-0.332L0.247,-0.332L0.247,-0L0.041,-0L0.041,-0.791L0.247,-0.791L0.247,-0.508L0.308,-0.508L0.308,-0.791L0.514,-0.791Z" style="fill:rgb(87,114,214);fill-rule:nonzero;"/>
                </g>
                <g transform="matrix(340.922,0,0,340.922,1222.9,504.167)">
                    <path d="M0.396,-0.791L0.514,-0L0.303,-0L0.293,-0.142L0.219,-0.142L0.207,-0L-0.006,-0L0.099,-0.791L0.396,-0.791ZM0.287,-0.282C0.277,-0.372 0.266,-0.482 0.256,-0.614C0.235,-0.463 0.222,-0.352 0.217,-0.282L0.287,-0.282Z" style="fill:rgb(87,114,214);fill-rule:nonzero;"/>
                </g>
                <g transform="matrix(340.922,0,0,340.922,1377.21,504.167)">
                    <path d="M0.455,-0.791L0.455,-0.632L0.333,-0.632L0.333,-0L0.127,-0L0.127,-0.632L0.006,-0.632L0.006,-0.791L0.455,-0.791Z" style="fill:rgb(87,114,214);fill-rule:nonzero;"/>
                </g>
            </g>
            <g transform="matrix(0.853431,0.521206,-0.521206,0.853431,313.939,-352.354)">
                <path d="M597.803,300.456C597.803,300.456 672.847,416.302 672.847,465.951C672.847,507.369 639.221,540.994 597.803,540.994C556.386,540.994 522.76,507.369 522.76,465.951C522.76,416.302 597.803,300.456 597.803,300.456Z" style="fill:rgb(37,149,43);"/>
            </g>
        </g>
    </g>
</svg>
